<mxfile host="app.diagrams.net" agent="Mozilla/5.0 (Windows NT 10.0; Win64; x64) AppleWebKit/537.36 (KHTML, like Gecko) Chrome/135.0.0.0 Safari/537.36" version="26.2.12">
  <diagram name="Page-1" id="ks7HY8iy_Kgf61ztUCsI">
    <mxGraphModel dx="1428" dy="743" grid="1" gridSize="10" guides="1" tooltips="1" connect="1" arrows="1" fold="1" page="1" pageScale="1" pageWidth="1169" pageHeight="827" background="none" math="0" shadow="0">
      <root>
        <mxCell id="0" />
        <mxCell id="1" parent="0" />
        <mxCell id="JO7mMctXThJsMqSaezbj-1" value="Usager" style="rounded=1;whiteSpace=wrap;html=1;fillColor=#d5e8d4;strokeColor=#82b366;" parent="1" vertex="1">
          <mxGeometry x="405" y="170" width="120" height="60" as="geometry" />
        </mxCell>
        <mxCell id="JO7mMctXThJsMqSaezbj-2" value="Bénévole" style="rounded=1;whiteSpace=wrap;html=1;fillColor=#d5e8d4;strokeColor=#82b366;" parent="1" vertex="1">
          <mxGeometry x="599" y="170" width="120" height="60" as="geometry" />
        </mxCell>
        <mxCell id="JO7mMctXThJsMqSaezbj-3" value="Unite" style="rounded=1;whiteSpace=wrap;html=1;fillColor=#d5e8d4;strokeColor=#82b366;" parent="1" vertex="1">
          <mxGeometry x="815" y="430" width="120" height="60" as="geometry" />
        </mxCell>
        <mxCell id="JO7mMctXThJsMqSaezbj-4" value="Intervention" style="rounded=1;whiteSpace=wrap;html=1;fillColor=#d5e8d4;strokeColor=#82b366;" parent="1" vertex="1">
          <mxGeometry x="242" y="430" width="120" height="60" as="geometry" />
        </mxCell>
        <mxCell id="JO7mMctXThJsMqSaezbj-5" value="Secteur" style="rounded=1;whiteSpace=wrap;html=1;fillColor=#d5e8d4;strokeColor=#82b366;" parent="1" vertex="1">
          <mxGeometry x="505" y="430" width="120" height="60" as="geometry" />
        </mxCell>
        <mxCell id="TEtd4nVNc_RvkwSd-Xjk-1" value="Réside" style="rhombus;whiteSpace=wrap;html=1;fillColor=#ffe6cc;strokeColor=#d79b00;" parent="1" vertex="1">
          <mxGeometry x="525" y="290" width="80" height="80" as="geometry" />
        </mxCell>
        <mxCell id="TEtd4nVNc_RvkwSd-Xjk-6" value="Forme" style="rhombus;whiteSpace=wrap;html=1;fillColor=#ffe6cc;strokeColor=#d79b00;" parent="1" vertex="1">
          <mxGeometry x="835" y="160" width="80" height="80" as="geometry" />
        </mxCell>
        <mxCell id="TEtd4nVNc_RvkwSd-Xjk-11" value="" style="endArrow=none;html=1;rounded=0;entryX=0.5;entryY=1;entryDx=0;entryDy=0;" parent="1" source="TEtd4nVNc_RvkwSd-Xjk-1" target="JO7mMctXThJsMqSaezbj-1" edge="1">
          <mxGeometry width="50" height="50" relative="1" as="geometry">
            <mxPoint x="465" y="380" as="sourcePoint" />
            <mxPoint x="745" y="430" as="targetPoint" />
            <Array as="points">
              <mxPoint x="465" y="330" />
            </Array>
          </mxGeometry>
        </mxCell>
        <mxCell id="KciBB_D1JzYFTfs1zMgW-5" value="1,1" style="edgeLabel;html=1;align=center;verticalAlign=middle;resizable=0;points=[];" parent="TEtd4nVNc_RvkwSd-Xjk-11" vertex="1" connectable="0">
          <mxGeometry x="0.3375" relative="1" as="geometry">
            <mxPoint as="offset" />
          </mxGeometry>
        </mxCell>
        <mxCell id="TEtd4nVNc_RvkwSd-Xjk-16" value="" style="endArrow=none;html=1;rounded=0;entryX=0.5;entryY=1;entryDx=0;entryDy=0;exitX=0.5;exitY=0;exitDx=0;exitDy=0;" parent="1" source="JO7mMctXThJsMqSaezbj-5" target="TEtd4nVNc_RvkwSd-Xjk-1" edge="1">
          <mxGeometry width="50" height="50" relative="1" as="geometry">
            <mxPoint x="695" y="480" as="sourcePoint" />
            <mxPoint x="745" y="430" as="targetPoint" />
          </mxGeometry>
        </mxCell>
        <mxCell id="KciBB_D1JzYFTfs1zMgW-10" value="0,*" style="edgeLabel;html=1;align=center;verticalAlign=middle;resizable=0;points=[];" parent="TEtd4nVNc_RvkwSd-Xjk-16" vertex="1" connectable="0">
          <mxGeometry x="-0.0333" y="1" relative="1" as="geometry">
            <mxPoint as="offset" />
          </mxGeometry>
        </mxCell>
        <mxCell id="TEtd4nVNc_RvkwSd-Xjk-17" value="" style="endArrow=none;html=1;rounded=0;entryX=0.5;entryY=1;entryDx=0;entryDy=0;exitX=1;exitY=0.5;exitDx=0;exitDy=0;" parent="1" source="TEtd4nVNc_RvkwSd-Xjk-1" edge="1">
          <mxGeometry width="50" height="50" relative="1" as="geometry">
            <mxPoint x="719" y="330" as="sourcePoint" />
            <mxPoint x="659" y="230" as="targetPoint" />
            <Array as="points">
              <mxPoint x="659" y="330" />
            </Array>
          </mxGeometry>
        </mxCell>
        <mxCell id="KciBB_D1JzYFTfs1zMgW-4" value="1,1" style="edgeLabel;html=1;align=center;verticalAlign=middle;resizable=0;points=[];" parent="TEtd4nVNc_RvkwSd-Xjk-17" vertex="1" connectable="0">
          <mxGeometry x="0.4286" y="-2" relative="1" as="geometry">
            <mxPoint as="offset" />
          </mxGeometry>
        </mxCell>
        <mxCell id="TEtd4nVNc_RvkwSd-Xjk-18" value="" style="endArrow=none;html=1;rounded=0;exitX=1;exitY=0.5;exitDx=0;exitDy=0;entryX=0;entryY=0.5;entryDx=0;entryDy=0;" parent="1" source="JO7mMctXThJsMqSaezbj-2" target="TEtd4nVNc_RvkwSd-Xjk-6" edge="1">
          <mxGeometry width="50" height="50" relative="1" as="geometry">
            <mxPoint x="775" y="260" as="sourcePoint" />
            <mxPoint x="815" y="200" as="targetPoint" />
          </mxGeometry>
        </mxCell>
        <mxCell id="KciBB_D1JzYFTfs1zMgW-6" value="0,*" style="edgeLabel;html=1;align=center;verticalAlign=middle;resizable=0;points=[];" parent="TEtd4nVNc_RvkwSd-Xjk-18" vertex="1" connectable="0">
          <mxGeometry x="-0.1207" y="-1" relative="1" as="geometry">
            <mxPoint as="offset" />
          </mxGeometry>
        </mxCell>
        <mxCell id="TEtd4nVNc_RvkwSd-Xjk-19" value="" style="endArrow=none;html=1;rounded=0;entryX=0.5;entryY=1;entryDx=0;entryDy=0;exitX=0.5;exitY=0;exitDx=0;exitDy=0;" parent="1" source="JO7mMctXThJsMqSaezbj-3" target="TEtd4nVNc_RvkwSd-Xjk-6" edge="1">
          <mxGeometry width="50" height="50" relative="1" as="geometry">
            <mxPoint x="795" y="310" as="sourcePoint" />
            <mxPoint x="845" y="260" as="targetPoint" />
          </mxGeometry>
        </mxCell>
        <mxCell id="KciBB_D1JzYFTfs1zMgW-3" value="1&lt;span style=&quot;background-color: light-dark(#ffffff, var(--ge-dark-color, #121212)); color: light-dark(rgb(0, 0, 0), rgb(255, 255, 255));&quot;&gt;,2&lt;/span&gt;" style="edgeLabel;html=1;align=center;verticalAlign=middle;resizable=0;points=[];" parent="TEtd4nVNc_RvkwSd-Xjk-19" vertex="1" connectable="0">
          <mxGeometry x="0.1053" y="-2" relative="1" as="geometry">
            <mxPoint as="offset" />
          </mxGeometry>
        </mxCell>
        <mxCell id="Wr0w5bm30W0_YL6eEUMg-1" value="Plainte" style="rounded=1;whiteSpace=wrap;html=1;fillColor=#d5e8d4;strokeColor=#82b366;" parent="1" vertex="1">
          <mxGeometry x="505" y="562" width="120" height="60" as="geometry" />
        </mxCell>
        <mxCell id="Wr0w5bm30W0_YL6eEUMg-5" value="Attitrée" style="rhombus;whiteSpace=wrap;html=1;fillColor=#ffe6cc;strokeColor=#d79b00;" parent="1" vertex="1">
          <mxGeometry x="680" y="420" width="80" height="80" as="geometry" />
        </mxCell>
        <mxCell id="Wr0w5bm30W0_YL6eEUMg-8" value="" style="endArrow=none;html=1;rounded=0;entryX=0;entryY=0.5;entryDx=0;entryDy=0;" parent="1" source="JO7mMctXThJsMqSaezbj-5" target="Wr0w5bm30W0_YL6eEUMg-5" edge="1">
          <mxGeometry width="50" height="50" relative="1" as="geometry">
            <mxPoint x="625" y="510" as="sourcePoint" />
            <mxPoint x="672" y="497" as="targetPoint" />
          </mxGeometry>
        </mxCell>
        <mxCell id="eeaKz44hLQpDB7-xSij6-11" value="0,*" style="edgeLabel;html=1;align=center;verticalAlign=middle;resizable=0;points=[];" parent="Wr0w5bm30W0_YL6eEUMg-8" vertex="1" connectable="0">
          <mxGeometry x="0.1636" y="-1" relative="1" as="geometry">
            <mxPoint as="offset" />
          </mxGeometry>
        </mxCell>
        <mxCell id="Wr0w5bm30W0_YL6eEUMg-9" value="" style="endArrow=none;html=1;rounded=0;entryX=1;entryY=0.5;entryDx=0;entryDy=0;exitX=0;exitY=0.5;exitDx=0;exitDy=0;" parent="1" source="JO7mMctXThJsMqSaezbj-3" target="Wr0w5bm30W0_YL6eEUMg-5" edge="1">
          <mxGeometry width="50" height="50" relative="1" as="geometry">
            <mxPoint x="749" y="547" as="sourcePoint" />
            <mxPoint x="799" y="497" as="targetPoint" />
          </mxGeometry>
        </mxCell>
        <mxCell id="eeaKz44hLQpDB7-xSij6-10" value="1,1" style="edgeLabel;html=1;align=center;verticalAlign=middle;resizable=0;points=[];" parent="Wr0w5bm30W0_YL6eEUMg-9" vertex="1" connectable="0">
          <mxGeometry x="-0.0182" y="1" relative="1" as="geometry">
            <mxPoint as="offset" />
          </mxGeometry>
        </mxCell>
        <mxCell id="Wr0w5bm30W0_YL6eEUMg-11" value="Attribuée" style="rhombus;whiteSpace=wrap;html=1;fillColor=#ffe6cc;strokeColor=#d79b00;" parent="1" vertex="1">
          <mxGeometry x="262" y="552" width="80" height="80" as="geometry" />
        </mxCell>
        <mxCell id="Wr0w5bm30W0_YL6eEUMg-12" value="" style="endArrow=none;html=1;rounded=0;entryX=0.5;entryY=1;entryDx=0;entryDy=0;exitX=0.5;exitY=0;exitDx=0;exitDy=0;" parent="1" source="Wr0w5bm30W0_YL6eEUMg-11" target="JO7mMctXThJsMqSaezbj-4" edge="1">
          <mxGeometry width="50" height="50" relative="1" as="geometry">
            <mxPoint x="174" y="563" as="sourcePoint" />
            <mxPoint x="224" y="513" as="targetPoint" />
          </mxGeometry>
        </mxCell>
        <mxCell id="eeaKz44hLQpDB7-xSij6-4" value="0,*" style="edgeLabel;html=1;align=center;verticalAlign=middle;resizable=0;points=[];" parent="Wr0w5bm30W0_YL6eEUMg-12" vertex="1" connectable="0">
          <mxGeometry x="-0.129" y="-2" relative="1" as="geometry">
            <mxPoint as="offset" />
          </mxGeometry>
        </mxCell>
        <mxCell id="Wr0w5bm30W0_YL6eEUMg-13" value="" style="endArrow=none;html=1;rounded=0;entryX=1;entryY=0.5;entryDx=0;entryDy=0;exitX=0;exitY=0.5;exitDx=0;exitDy=0;" parent="1" source="Wr0w5bm30W0_YL6eEUMg-1" target="Wr0w5bm30W0_YL6eEUMg-11" edge="1">
          <mxGeometry width="50" height="50" relative="1" as="geometry">
            <mxPoint x="180" y="624" as="sourcePoint" />
            <mxPoint x="230" y="574" as="targetPoint" />
          </mxGeometry>
        </mxCell>
        <mxCell id="eeaKz44hLQpDB7-xSij6-6" value="1,1" style="edgeLabel;html=1;align=center;verticalAlign=middle;resizable=0;points=[];" parent="Wr0w5bm30W0_YL6eEUMg-13" vertex="1" connectable="0">
          <mxGeometry x="0.0675" y="-1" relative="1" as="geometry">
            <mxPoint as="offset" />
          </mxGeometry>
        </mxCell>
        <mxCell id="Wr0w5bm30W0_YL6eEUMg-24" value="Attitrée" style="rhombus;whiteSpace=wrap;html=1;fillColor=#ffe6cc;strokeColor=#d79b00;" parent="1" vertex="1">
          <mxGeometry x="680" y="622" width="80" height="80" as="geometry" />
        </mxCell>
        <mxCell id="Wr0w5bm30W0_YL6eEUMg-25" value="" style="endArrow=none;html=1;rounded=0;entryX=0.5;entryY=1;entryDx=0;entryDy=0;exitX=1;exitY=0.5;exitDx=0;exitDy=0;" parent="1" source="Wr0w5bm30W0_YL6eEUMg-24" target="JO7mMctXThJsMqSaezbj-3" edge="1">
          <mxGeometry width="50" height="50" relative="1" as="geometry">
            <mxPoint x="850" y="691" as="sourcePoint" />
            <mxPoint x="900" y="641" as="targetPoint" />
            <Array as="points">
              <mxPoint x="875" y="661" />
            </Array>
          </mxGeometry>
        </mxCell>
        <mxCell id="eeaKz44hLQpDB7-xSij6-3" value="0,*" style="edgeLabel;html=1;align=center;verticalAlign=middle;resizable=0;points=[];" parent="Wr0w5bm30W0_YL6eEUMg-25" vertex="1" connectable="0">
          <mxGeometry x="0.1329" y="-1" relative="1" as="geometry">
            <mxPoint as="offset" />
          </mxGeometry>
        </mxCell>
        <mxCell id="Wr0w5bm30W0_YL6eEUMg-26" value="" style="endArrow=none;html=1;rounded=0;" parent="1" edge="1">
          <mxGeometry width="50" height="50" relative="1" as="geometry">
            <mxPoint x="240" y="460" as="sourcePoint" />
            <mxPoint x="680" y="660" as="targetPoint" />
            <Array as="points">
              <mxPoint x="210" y="460" />
              <mxPoint x="210" y="661" />
            </Array>
          </mxGeometry>
        </mxCell>
        <mxCell id="eeaKz44hLQpDB7-xSij6-2" value="1,1" style="edgeLabel;html=1;align=center;verticalAlign=middle;resizable=0;points=[];" parent="Wr0w5bm30W0_YL6eEUMg-26" vertex="1" connectable="0">
          <mxGeometry x="0.2582" y="-2" relative="1" as="geometry">
            <mxPoint as="offset" />
          </mxGeometry>
        </mxCell>
        <mxCell id="Wr0w5bm30W0_YL6eEUMg-27" value="Attitrée" style="rhombus;whiteSpace=wrap;html=1;fillColor=#ffe6cc;strokeColor=#d79b00;" parent="1" vertex="1">
          <mxGeometry x="390" y="420" width="80" height="80" as="geometry" />
        </mxCell>
        <mxCell id="Wr0w5bm30W0_YL6eEUMg-28" value="" style="endArrow=none;html=1;rounded=0;entryX=0;entryY=0.5;entryDx=0;entryDy=0;exitX=1;exitY=0.5;exitDx=0;exitDy=0;" parent="1" source="Wr0w5bm30W0_YL6eEUMg-27" target="JO7mMctXThJsMqSaezbj-5" edge="1">
          <mxGeometry width="50" height="50" relative="1" as="geometry">
            <mxPoint x="580" y="471" as="sourcePoint" />
            <mxPoint x="630" y="421" as="targetPoint" />
          </mxGeometry>
        </mxCell>
        <mxCell id="eeaKz44hLQpDB7-xSij6-7" value="0,*" style="edgeLabel;html=1;align=center;verticalAlign=middle;resizable=0;points=[];" parent="Wr0w5bm30W0_YL6eEUMg-28" vertex="1" connectable="0">
          <mxGeometry x="0.0286" y="1" relative="1" as="geometry">
            <mxPoint as="offset" />
          </mxGeometry>
        </mxCell>
        <mxCell id="Wr0w5bm30W0_YL6eEUMg-29" value="" style="endArrow=none;html=1;rounded=0;entryX=0;entryY=0.5;entryDx=0;entryDy=0;exitX=1;exitY=0.5;exitDx=0;exitDy=0;" parent="1" source="JO7mMctXThJsMqSaezbj-4" target="Wr0w5bm30W0_YL6eEUMg-27" edge="1">
          <mxGeometry width="50" height="50" relative="1" as="geometry">
            <mxPoint x="280" y="411" as="sourcePoint" />
            <mxPoint x="330" y="361" as="targetPoint" />
          </mxGeometry>
        </mxCell>
        <mxCell id="eeaKz44hLQpDB7-xSij6-9" value="1,1" style="edgeLabel;html=1;align=center;verticalAlign=middle;resizable=0;points=[];" parent="Wr0w5bm30W0_YL6eEUMg-29" vertex="1" connectable="0">
          <mxGeometry x="0.1429" relative="1" as="geometry">
            <mxPoint as="offset" />
          </mxGeometry>
        </mxCell>
        <mxCell id="Wr0w5bm30W0_YL6eEUMg-31" value="Demande" style="rhombus;whiteSpace=wrap;html=1;fillColor=#ffe6cc;strokeColor=#d79b00;" parent="1" vertex="1">
          <mxGeometry x="262" y="160" width="80" height="80" as="geometry" />
        </mxCell>
        <mxCell id="Wr0w5bm30W0_YL6eEUMg-33" value="" style="endArrow=none;html=1;rounded=0;entryX=0;entryY=0.5;entryDx=0;entryDy=0;exitX=1;exitY=0.5;exitDx=0;exitDy=0;" parent="1" source="Wr0w5bm30W0_YL6eEUMg-31" target="JO7mMctXThJsMqSaezbj-1" edge="1">
          <mxGeometry width="50" height="50" relative="1" as="geometry">
            <mxPoint x="300" y="361" as="sourcePoint" />
            <mxPoint x="350" y="311" as="targetPoint" />
          </mxGeometry>
        </mxCell>
        <mxCell id="KciBB_D1JzYFTfs1zMgW-7" value="0,*" style="edgeLabel;html=1;align=center;verticalAlign=middle;resizable=0;points=[];" parent="Wr0w5bm30W0_YL6eEUMg-33" vertex="1" connectable="0">
          <mxGeometry x="-0.0476" y="1" relative="1" as="geometry">
            <mxPoint as="offset" />
          </mxGeometry>
        </mxCell>
        <mxCell id="Wr0w5bm30W0_YL6eEUMg-34" value="" style="endArrow=none;html=1;rounded=0;entryX=0.5;entryY=1;entryDx=0;entryDy=0;" parent="1" source="JO7mMctXThJsMqSaezbj-4" target="Wr0w5bm30W0_YL6eEUMg-31" edge="1">
          <mxGeometry width="50" height="50" relative="1" as="geometry">
            <mxPoint x="580" y="471" as="sourcePoint" />
            <mxPoint x="630" y="421" as="targetPoint" />
          </mxGeometry>
        </mxCell>
        <mxCell id="KciBB_D1JzYFTfs1zMgW-8" value="1,1" style="edgeLabel;html=1;align=center;verticalAlign=middle;resizable=0;points=[];" parent="Wr0w5bm30W0_YL6eEUMg-34" vertex="1" connectable="0">
          <mxGeometry x="-0.0526" y="-2" relative="1" as="geometry">
            <mxPoint as="offset" />
          </mxGeometry>
        </mxCell>
        <mxCell id="xEVUNQ7jQdWQ6YrlHSxK-1" value="" style="endArrow=none;html=1;rounded=0;exitX=0;exitY=0;exitDx=0;exitDy=0;" edge="1" parent="1" source="JO7mMctXThJsMqSaezbj-1">
          <mxGeometry width="50" height="50" relative="1" as="geometry">
            <mxPoint x="410" y="150" as="sourcePoint" />
            <mxPoint x="390" y="140" as="targetPoint" />
          </mxGeometry>
        </mxCell>
        <mxCell id="xEVUNQ7jQdWQ6YrlHSxK-2" value="&lt;u&gt;id&lt;/u&gt;" style="text;html=1;align=center;verticalAlign=middle;resizable=0;points=[];autosize=1;strokeColor=none;fillColor=none;" vertex="1" parent="1">
          <mxGeometry x="362" y="110" width="30" height="30" as="geometry" />
        </mxCell>
        <mxCell id="xEVUNQ7jQdWQ6YrlHSxK-3" value="" style="endArrow=none;html=1;rounded=0;exitX=0;exitY=0;exitDx=0;exitDy=0;" edge="1" parent="1">
          <mxGeometry width="50" height="50" relative="1" as="geometry">
            <mxPoint x="425" y="170" as="sourcePoint" />
            <mxPoint x="410" y="120" as="targetPoint" />
          </mxGeometry>
        </mxCell>
        <mxCell id="xEVUNQ7jQdWQ6YrlHSxK-4" value="nom" style="text;html=1;align=center;verticalAlign=middle;resizable=0;points=[];autosize=1;strokeColor=none;fillColor=none;" vertex="1" parent="1">
          <mxGeometry x="380" y="90" width="50" height="30" as="geometry" />
        </mxCell>
        <mxCell id="xEVUNQ7jQdWQ6YrlHSxK-5" value="" style="endArrow=none;html=1;rounded=0;exitX=0.292;exitY=0;exitDx=0;exitDy=0;exitPerimeter=0;" edge="1" parent="1" target="xEVUNQ7jQdWQ6YrlHSxK-8">
          <mxGeometry width="50" height="50" relative="1" as="geometry">
            <mxPoint x="450.03999999999996" y="170" as="sourcePoint" />
            <mxPoint x="450" y="100" as="targetPoint" />
          </mxGeometry>
        </mxCell>
        <mxCell id="xEVUNQ7jQdWQ6YrlHSxK-6" value="" style="endArrow=none;html=1;rounded=0;exitX=0.817;exitY=-0.037;exitDx=0;exitDy=0;exitPerimeter=0;" edge="1" parent="1" source="JO7mMctXThJsMqSaezbj-1">
          <mxGeometry width="50" height="50" relative="1" as="geometry">
            <mxPoint x="510" y="170" as="sourcePoint" />
            <mxPoint x="510" y="140" as="targetPoint" />
          </mxGeometry>
        </mxCell>
        <mxCell id="xEVUNQ7jQdWQ6YrlHSxK-7" value="" style="endArrow=none;html=1;rounded=0;exitX=0.627;exitY=0.03;exitDx=0;exitDy=0;exitPerimeter=0;entryX=0.425;entryY=1.087;entryDx=0;entryDy=0;entryPerimeter=0;" edge="1" parent="1" source="JO7mMctXThJsMqSaezbj-1" target="xEVUNQ7jQdWQ6YrlHSxK-9">
          <mxGeometry width="50" height="50" relative="1" as="geometry">
            <mxPoint x="520" y="180" as="sourcePoint" />
            <mxPoint x="490" y="130" as="targetPoint" />
          </mxGeometry>
        </mxCell>
        <mxCell id="xEVUNQ7jQdWQ6YrlHSxK-8" value="prenom" style="text;html=1;align=center;verticalAlign=middle;resizable=0;points=[];autosize=1;strokeColor=none;fillColor=none;" vertex="1" parent="1">
          <mxGeometry x="410" y="70" width="60" height="30" as="geometry" />
        </mxCell>
        <mxCell id="xEVUNQ7jQdWQ6YrlHSxK-9" value="telephone" style="text;html=1;align=center;verticalAlign=middle;resizable=0;points=[];autosize=1;strokeColor=none;fillColor=none;" vertex="1" parent="1">
          <mxGeometry x="445" y="90" width="80" height="30" as="geometry" />
        </mxCell>
        <mxCell id="xEVUNQ7jQdWQ6YrlHSxK-10" value="" style="endArrow=none;html=1;rounded=0;exitX=0.99;exitY=0.083;exitDx=0;exitDy=0;exitPerimeter=0;" edge="1" parent="1" source="JO7mMctXThJsMqSaezbj-1">
          <mxGeometry width="50" height="50" relative="1" as="geometry">
            <mxPoint x="520" y="180" as="sourcePoint" />
            <mxPoint x="540" y="160" as="targetPoint" />
          </mxGeometry>
        </mxCell>
        <mxCell id="xEVUNQ7jQdWQ6YrlHSxK-13" value="courriel" style="text;html=1;align=center;verticalAlign=middle;resizable=0;points=[];autosize=1;strokeColor=none;fillColor=none;" vertex="1" parent="1">
          <mxGeometry x="480" y="120" width="60" height="30" as="geometry" />
        </mxCell>
        <mxCell id="xEVUNQ7jQdWQ6YrlHSxK-14" value="adresse" style="text;strokeColor=none;align=center;fillColor=none;html=1;verticalAlign=middle;whiteSpace=wrap;rounded=0;" vertex="1" parent="1">
          <mxGeometry x="510" y="140" width="60" height="30" as="geometry" />
        </mxCell>
        <mxCell id="xEVUNQ7jQdWQ6YrlHSxK-15" value="" style="endArrow=none;html=1;rounded=0;exitX=0;exitY=0;exitDx=0;exitDy=0;" edge="1" parent="1" source="JO7mMctXThJsMqSaezbj-2">
          <mxGeometry width="50" height="50" relative="1" as="geometry">
            <mxPoint x="723" y="80" as="sourcePoint" />
            <mxPoint x="590" y="130" as="targetPoint" />
          </mxGeometry>
        </mxCell>
        <mxCell id="xEVUNQ7jQdWQ6YrlHSxK-16" value="&lt;u&gt;id&lt;/u&gt;" style="text;html=1;align=center;verticalAlign=middle;resizable=0;points=[];autosize=1;strokeColor=none;fillColor=none;" vertex="1" parent="1">
          <mxGeometry x="569" y="100" width="30" height="30" as="geometry" />
        </mxCell>
        <mxCell id="xEVUNQ7jQdWQ6YrlHSxK-17" value="" style="endArrow=none;html=1;rounded=0;exitX=0.14;exitY=-0.047;exitDx=0;exitDy=0;exitPerimeter=0;" edge="1" parent="1" source="JO7mMctXThJsMqSaezbj-2">
          <mxGeometry width="50" height="50" relative="1" as="geometry">
            <mxPoint x="743" y="80" as="sourcePoint" />
            <mxPoint x="610" y="100" as="targetPoint" />
          </mxGeometry>
        </mxCell>
        <mxCell id="xEVUNQ7jQdWQ6YrlHSxK-18" value="nom" style="text;html=1;align=center;verticalAlign=middle;resizable=0;points=[];autosize=1;strokeColor=none;fillColor=none;" vertex="1" parent="1">
          <mxGeometry x="585" y="70" width="50" height="30" as="geometry" />
        </mxCell>
        <mxCell id="xEVUNQ7jQdWQ6YrlHSxK-19" value="" style="endArrow=none;html=1;rounded=0;exitX=0.342;exitY=0;exitDx=0;exitDy=0;exitPerimeter=0;" edge="1" parent="1" source="JO7mMctXThJsMqSaezbj-2">
          <mxGeometry width="50" height="50" relative="1" as="geometry">
            <mxPoint x="768.04" y="80" as="sourcePoint" />
            <mxPoint x="640" y="70" as="targetPoint" />
          </mxGeometry>
        </mxCell>
        <mxCell id="xEVUNQ7jQdWQ6YrlHSxK-20" value="" style="endArrow=none;html=1;rounded=0;exitX=0.75;exitY=0;exitDx=0;exitDy=0;" edge="1" parent="1" source="JO7mMctXThJsMqSaezbj-2">
          <mxGeometry width="50" height="50" relative="1" as="geometry">
            <mxPoint x="790" y="100" as="sourcePoint" />
            <mxPoint x="700" y="110" as="targetPoint" />
          </mxGeometry>
        </mxCell>
        <mxCell id="xEVUNQ7jQdWQ6YrlHSxK-21" value="" style="endArrow=none;html=1;rounded=0;exitX=0.592;exitY=0;exitDx=0;exitDy=0;exitPerimeter=0;entryX=0.455;entryY=1.087;entryDx=0;entryDy=0;entryPerimeter=0;" edge="1" parent="1" target="xEVUNQ7jQdWQ6YrlHSxK-23" source="JO7mMctXThJsMqSaezbj-2">
          <mxGeometry width="50" height="50" relative="1" as="geometry">
            <mxPoint x="798" y="82" as="sourcePoint" />
            <mxPoint x="680" y="90" as="targetPoint" />
          </mxGeometry>
        </mxCell>
        <mxCell id="xEVUNQ7jQdWQ6YrlHSxK-22" value="prenom" style="text;html=1;align=center;verticalAlign=middle;resizable=0;points=[];autosize=1;strokeColor=none;fillColor=none;" vertex="1" parent="1">
          <mxGeometry x="610" y="40" width="60" height="30" as="geometry" />
        </mxCell>
        <mxCell id="xEVUNQ7jQdWQ6YrlHSxK-23" value="telephone" style="text;html=1;align=center;verticalAlign=middle;resizable=0;points=[];autosize=1;strokeColor=none;fillColor=none;" vertex="1" parent="1">
          <mxGeometry x="635" y="60" width="80" height="30" as="geometry" />
        </mxCell>
        <mxCell id="xEVUNQ7jQdWQ6YrlHSxK-24" value="" style="endArrow=none;html=1;rounded=0;exitX=0.925;exitY=0;exitDx=0;exitDy=0;exitPerimeter=0;" edge="1" parent="1" source="JO7mMctXThJsMqSaezbj-2">
          <mxGeometry width="50" height="50" relative="1" as="geometry">
            <mxPoint x="842" y="85" as="sourcePoint" />
            <mxPoint x="720" y="130" as="targetPoint" />
          </mxGeometry>
        </mxCell>
        <mxCell id="xEVUNQ7jQdWQ6YrlHSxK-25" value="courriel" style="text;html=1;align=center;verticalAlign=middle;resizable=0;points=[];autosize=1;strokeColor=none;fillColor=none;" vertex="1" parent="1">
          <mxGeometry x="670" y="80" width="60" height="30" as="geometry" />
        </mxCell>
        <mxCell id="xEVUNQ7jQdWQ6YrlHSxK-26" value="adresse" style="text;strokeColor=none;align=center;fillColor=none;html=1;verticalAlign=middle;whiteSpace=wrap;rounded=0;" vertex="1" parent="1">
          <mxGeometry x="700" y="100" width="60" height="30" as="geometry" />
        </mxCell>
        <mxCell id="xEVUNQ7jQdWQ6YrlHSxK-27" value="" style="endArrow=none;html=1;rounded=0;exitX=0.987;exitY=0.083;exitDx=0;exitDy=0;exitPerimeter=0;" edge="1" parent="1" source="JO7mMctXThJsMqSaezbj-2">
          <mxGeometry width="50" height="50" relative="1" as="geometry">
            <mxPoint x="720" y="180" as="sourcePoint" />
            <mxPoint x="740" y="150" as="targetPoint" />
          </mxGeometry>
        </mxCell>
        <mxCell id="xEVUNQ7jQdWQ6YrlHSxK-28" value="possede_voiture" style="text;strokeColor=none;align=center;fillColor=none;html=1;verticalAlign=middle;whiteSpace=wrap;rounded=0;" vertex="1" parent="1">
          <mxGeometry x="750" y="120" width="60" height="30" as="geometry" />
        </mxCell>
        <mxCell id="xEVUNQ7jQdWQ6YrlHSxK-29" value="&lt;u&gt;id&lt;/u&gt;" style="text;html=1;align=center;verticalAlign=middle;resizable=0;points=[];autosize=1;strokeColor=none;fillColor=none;" vertex="1" parent="1">
          <mxGeometry x="920" y="370" width="30" height="30" as="geometry" />
        </mxCell>
        <mxCell id="xEVUNQ7jQdWQ6YrlHSxK-30" value="est_disponible" style="text;html=1;align=center;verticalAlign=middle;resizable=0;points=[];autosize=1;strokeColor=none;fillColor=none;" vertex="1" parent="1">
          <mxGeometry x="940" y="400" width="100" height="30" as="geometry" />
        </mxCell>
        <mxCell id="xEVUNQ7jQdWQ6YrlHSxK-31" value="" style="endArrow=none;html=1;rounded=0;exitX=0.794;exitY=-0.031;exitDx=0;exitDy=0;exitPerimeter=0;" edge="1" parent="1" source="JO7mMctXThJsMqSaezbj-3">
          <mxGeometry width="50" height="50" relative="1" as="geometry">
            <mxPoint x="1010" y="460" as="sourcePoint" />
            <mxPoint x="930" y="400" as="targetPoint" />
          </mxGeometry>
        </mxCell>
        <mxCell id="xEVUNQ7jQdWQ6YrlHSxK-32" value="" style="endArrow=none;html=1;rounded=0;exitX=1;exitY=0.25;exitDx=0;exitDy=0;" edge="1" parent="1" source="JO7mMctXThJsMqSaezbj-3">
          <mxGeometry width="50" height="50" relative="1" as="geometry">
            <mxPoint x="920" y="438" as="sourcePoint" />
            <mxPoint x="960" y="430" as="targetPoint" />
          </mxGeometry>
        </mxCell>
        <mxCell id="xEVUNQ7jQdWQ6YrlHSxK-33" value="&lt;u&gt;id&lt;/u&gt;" style="text;html=1;align=center;verticalAlign=middle;resizable=0;points=[];autosize=1;strokeColor=none;fillColor=none;" vertex="1" parent="1">
          <mxGeometry x="490" y="378" width="30" height="30" as="geometry" />
        </mxCell>
        <mxCell id="xEVUNQ7jQdWQ6YrlHSxK-34" value="nom" style="text;html=1;align=center;verticalAlign=middle;resizable=0;points=[];autosize=1;strokeColor=none;fillColor=none;" vertex="1" parent="1">
          <mxGeometry x="610" y="378" width="50" height="30" as="geometry" />
        </mxCell>
        <mxCell id="xEVUNQ7jQdWQ6YrlHSxK-35" value="" style="endArrow=none;html=1;rounded=0;exitX=0.047;exitY=-0.01;exitDx=0;exitDy=0;exitPerimeter=0;entryX=0.5;entryY=1.033;entryDx=0;entryDy=0;entryPerimeter=0;" edge="1" parent="1" source="JO7mMctXThJsMqSaezbj-5" target="xEVUNQ7jQdWQ6YrlHSxK-33">
          <mxGeometry width="50" height="50" relative="1" as="geometry">
            <mxPoint x="580" y="450" as="sourcePoint" />
            <mxPoint x="600" y="410" as="targetPoint" />
          </mxGeometry>
        </mxCell>
        <mxCell id="xEVUNQ7jQdWQ6YrlHSxK-36" value="" style="endArrow=none;html=1;rounded=0;exitX=0.88;exitY=0.017;exitDx=0;exitDy=0;exitPerimeter=0;" edge="1" parent="1" source="JO7mMctXThJsMqSaezbj-5">
          <mxGeometry width="50" height="50" relative="1" as="geometry">
            <mxPoint x="610" y="430" as="sourcePoint" />
            <mxPoint x="630" y="410" as="targetPoint" />
          </mxGeometry>
        </mxCell>
        <mxCell id="xEVUNQ7jQdWQ6YrlHSxK-37" value="&lt;u&gt;id&lt;/u&gt;" style="text;html=1;align=center;verticalAlign=middle;resizable=0;points=[];autosize=1;strokeColor=none;fillColor=none;" vertex="1" parent="1">
          <mxGeometry x="160" y="408" width="30" height="30" as="geometry" />
        </mxCell>
        <mxCell id="xEVUNQ7jQdWQ6YrlHSxK-38" value="date_demande" style="text;html=1;align=center;verticalAlign=middle;resizable=0;points=[];autosize=1;strokeColor=none;fillColor=none;" vertex="1" parent="1">
          <mxGeometry x="142" y="378" width="100" height="30" as="geometry" />
        </mxCell>
        <mxCell id="xEVUNQ7jQdWQ6YrlHSxK-39" value="date_intervention" style="text;html=1;align=center;verticalAlign=middle;resizable=0;points=[];autosize=1;strokeColor=none;fillColor=none;" vertex="1" parent="1">
          <mxGeometry x="190" y="360" width="120" height="30" as="geometry" />
        </mxCell>
        <mxCell id="xEVUNQ7jQdWQ6YrlHSxK-40" value="type_aide" style="text;html=1;align=center;verticalAlign=middle;resizable=0;points=[];autosize=1;strokeColor=none;fillColor=none;" vertex="1" parent="1">
          <mxGeometry x="337" y="360" width="80" height="30" as="geometry" />
        </mxCell>
        <mxCell id="xEVUNQ7jQdWQ6YrlHSxK-41" value="statut" style="text;html=1;align=center;verticalAlign=middle;resizable=0;points=[];autosize=1;strokeColor=none;fillColor=none;" vertex="1" parent="1">
          <mxGeometry x="310" y="348" width="50" height="30" as="geometry" />
        </mxCell>
        <mxCell id="xEVUNQ7jQdWQ6YrlHSxK-42" value="" style="endArrow=none;html=1;rounded=0;entryX=0.317;entryY=0;entryDx=0;entryDy=0;entryPerimeter=0;" edge="1" parent="1" target="JO7mMctXThJsMqSaezbj-4">
          <mxGeometry width="50" height="50" relative="1" as="geometry">
            <mxPoint x="270" y="390" as="sourcePoint" />
            <mxPoint x="180" y="450" as="targetPoint" />
          </mxGeometry>
        </mxCell>
        <mxCell id="xEVUNQ7jQdWQ6YrlHSxK-43" value="" style="endArrow=none;html=1;rounded=0;entryX=0.072;entryY=0.017;entryDx=0;entryDy=0;entryPerimeter=0;" edge="1" parent="1" target="JO7mMctXThJsMqSaezbj-4">
          <mxGeometry width="50" height="50" relative="1" as="geometry">
            <mxPoint x="220" y="400" as="sourcePoint" />
            <mxPoint x="290" y="440" as="targetPoint" />
          </mxGeometry>
        </mxCell>
        <mxCell id="xEVUNQ7jQdWQ6YrlHSxK-44" value="" style="endArrow=none;html=1;rounded=0;entryX=0.002;entryY=0.297;entryDx=0;entryDy=0;entryPerimeter=0;" edge="1" parent="1" target="JO7mMctXThJsMqSaezbj-4">
          <mxGeometry width="50" height="50" relative="1" as="geometry">
            <mxPoint x="190" y="430" as="sourcePoint" />
            <mxPoint x="261" y="441" as="targetPoint" />
          </mxGeometry>
        </mxCell>
        <mxCell id="xEVUNQ7jQdWQ6YrlHSxK-45" value="" style="endArrow=none;html=1;rounded=0;entryX=0.662;entryY=-0.01;entryDx=0;entryDy=0;entryPerimeter=0;" edge="1" parent="1" target="JO7mMctXThJsMqSaezbj-4">
          <mxGeometry width="50" height="50" relative="1" as="geometry">
            <mxPoint x="330" y="380" as="sourcePoint" />
            <mxPoint x="252" y="458" as="targetPoint" />
          </mxGeometry>
        </mxCell>
        <mxCell id="xEVUNQ7jQdWQ6YrlHSxK-46" value="" style="endArrow=none;html=1;rounded=0;" edge="1" parent="1">
          <mxGeometry width="50" height="50" relative="1" as="geometry">
            <mxPoint x="360" y="390" as="sourcePoint" />
            <mxPoint x="340" y="430" as="targetPoint" />
          </mxGeometry>
        </mxCell>
        <mxCell id="xEVUNQ7jQdWQ6YrlHSxK-47" value="&lt;u&gt;id&lt;/u&gt;" style="text;html=1;align=center;verticalAlign=middle;resizable=0;points=[];autosize=1;strokeColor=none;fillColor=none;" vertex="1" parent="1">
          <mxGeometry x="480" y="520" width="30" height="30" as="geometry" />
        </mxCell>
        <mxCell id="xEVUNQ7jQdWQ6YrlHSxK-48" value="type" style="text;strokeColor=none;align=center;fillColor=none;html=1;verticalAlign=middle;whiteSpace=wrap;rounded=0;" vertex="1" parent="1">
          <mxGeometry x="535" y="510" width="60" height="30" as="geometry" />
        </mxCell>
        <mxCell id="xEVUNQ7jQdWQ6YrlHSxK-49" value="description" style="text;html=1;align=center;verticalAlign=middle;resizable=0;points=[];autosize=1;strokeColor=none;fillColor=none;" vertex="1" parent="1">
          <mxGeometry x="605" y="522" width="80" height="30" as="geometry" />
        </mxCell>
        <mxCell id="xEVUNQ7jQdWQ6YrlHSxK-51" value="" style="endArrow=none;html=1;rounded=0;entryX=0.041;entryY=0.019;entryDx=0;entryDy=0;entryPerimeter=0;exitX=0.563;exitY=0.939;exitDx=0;exitDy=0;exitPerimeter=0;" edge="1" parent="1" source="xEVUNQ7jQdWQ6YrlHSxK-47" target="Wr0w5bm30W0_YL6eEUMg-1">
          <mxGeometry width="50" height="50" relative="1" as="geometry">
            <mxPoint x="420" y="590" as="sourcePoint" />
            <mxPoint x="470" y="540" as="targetPoint" />
          </mxGeometry>
        </mxCell>
        <mxCell id="xEVUNQ7jQdWQ6YrlHSxK-52" value="" style="endArrow=none;html=1;rounded=0;entryX=0.5;entryY=0;entryDx=0;entryDy=0;exitX=0.5;exitY=1;exitDx=0;exitDy=0;" edge="1" parent="1" source="xEVUNQ7jQdWQ6YrlHSxK-48" target="Wr0w5bm30W0_YL6eEUMg-1">
          <mxGeometry width="50" height="50" relative="1" as="geometry">
            <mxPoint x="507" y="558" as="sourcePoint" />
            <mxPoint x="520" y="573" as="targetPoint" />
          </mxGeometry>
        </mxCell>
        <mxCell id="xEVUNQ7jQdWQ6YrlHSxK-53" value="" style="endArrow=none;html=1;rounded=0;entryX=0.969;entryY=0.043;entryDx=0;entryDy=0;exitX=0.496;exitY=0.965;exitDx=0;exitDy=0;entryPerimeter=0;exitPerimeter=0;" edge="1" parent="1" source="xEVUNQ7jQdWQ6YrlHSxK-49" target="Wr0w5bm30W0_YL6eEUMg-1">
          <mxGeometry width="50" height="50" relative="1" as="geometry">
            <mxPoint x="575" y="550" as="sourcePoint" />
            <mxPoint x="575" y="572" as="targetPoint" />
          </mxGeometry>
        </mxCell>
      </root>
    </mxGraphModel>
  </diagram>
</mxfile>
